# xmcd
# 
# Track frame offsets:
#     150
#     14467
#     26435
#     37163
#     48286
#     59395
#     72769
#     86227
#     98555
#     110611
#     122293
#     130086
#     140239
#     151302
#     165186
#     176620
#     187043
#     199279
#     209698
#     222107
#     232281
#     240783
#     251738
#     262846
#     275395
#     287221
#     298676
# 
# Disc length: 4258
# 
# Revision: 1
# Processed by: cddbd v1.5.2PL0 Copyright (c) Steve Scherf et al.
# Submitted via: fre:ac v1.0.31
# 
DISCID=9210a01b
DTITLE=R&B - The Sweet Sound of Philadelphia Soul, 1959-1964 Disc 2
DYEAR=2015
DGENRE=R&B
TTITLE0=The Imaginations - I Want a Girl
TTITLE1=Lois Lane - Turn Me Loose
TTITLE2=Yvonne Baker and The Sensations - Eyes
TTITLE3=Kenny Gamble and Tommy Bell - I'll Get By Without You
TTITLE4=Bernard Williams and The Original Bluenotes - It's Needless to Say
TTITLE5=Delores Lynn - Just Tell it Like it Is
TTITLE6=Jimmy Dee and The Universals - If it Wasn't for Pride
TTITLE7=Bobby Bennett - Evol (Love Spelled Backwards)
TTITLE8=The Buttons - You Set My Soul on Fire
TTITLE9=Bobby Parker - It's Too Late Darling
TTITLE10=Little Floyd - My Baby Loves You (with The Tams)
TTITLE11=Lenny O'Henry - Mr. Moonlight
TTITLE12=Delores Lynn - The Big Search is On
TTITLE13=Lois Lane - My Only Prayer
TTITLE14=The Utopians - Dutch Treat
TTITLE15=Carrie Grant and The Grandeurs - Take All of My Life
TTITLE16=Donnie Elbert - Nobody Knows
TTITLE17=The Stylettes - On Fire
TTITLE18=Jean Wells - If He's a Good Man
TTITLE19=The Jolly Jax - There's Something on Your Mind, Part 2
TTITLE20=The Tams - Find Another Love
TTITLE21=The Blue-Belles - I Sold My Heart to the Junkman
TTITLE22=The Kittens - Walter
TTITLE23=Don Covay - One Little Boy Had Money
TTITLE24=Lady Fox and The Foxetttes - I Think of You
TTITLE25=Eddie Holman - I'm Counting Every Tear
TTITLE26=Jimmy McGriff - I've Got a Woman (Parts 1 and 2)
EXTD=
EXTT0=
EXTT1=
EXTT2=
EXTT3=
EXTT4=
EXTT5=
EXTT6=
EXTT7=
EXTT8=
EXTT9=
EXTT10=
EXTT11=
EXTT12=
EXTT13=
EXTT14=
EXTT15=
EXTT16=
EXTT17=
EXTT18=
EXTT19=
EXTT20=
EXTT21=
EXTT22=
EXTT23=
EXTT24=
EXTT25=
EXTT26=
PLAYORDER=
